{"title":"Lore.2012.DVDRip.SUBBED.XviD.AC3.HORiZON-ArtSubs","uid":8130341,"size":1569794048,"categoryP":"video","categoryS":"movies","magnet":"?xt=urn:btih:95595bab446cd5acd52c7945ec5a8660b73b837a&amp;dn=Lore.2012.DVDRip.SUBBED.XviD.AC3.HORiZON-ArtSubs&amp;tr=udp%3A%2F%2Ftracker.openbittorrent.com%3A80&amp;tr=udp%3A%2F%2Fopen.demonii.com%3A1337&amp;tr=udp%3A%2F%2Ftracker.coppersurfer.tk%3A6969&amp;tr=udp%3A%2F%2Fexodus.desync.com%3A6969","seeders":6,"leechers":2,"uploader":"lletaif","files":1,"time":1360542803,"description":"Title: \nLore\n\nCountry: \nAustralia,2012\n\nLanguage:\nGerman\n\nSubtitle:\nEnglish\n\nDirector:\nCate Shortland\n\nWriters:\nCate Shortland (screenplay), Robin Mukherjee (screenplay)\n\nStars:\nSaskia Rosendahl, Kai-Peter Malina, Nele Trebs \n\nSynopsis:\nAs the Allies sweep across Germany, Lore leads her siblings on a journey that exposes them to the truth of their parents' beliefs. An encounter with a mysterious refugee forces Lore to rely on a person she has always been taught to hate. \n\nTrivia:\nThe official entry of Australia to the Best Foreign Language Film of the 85th Academy Awards 2013. Select from Cannes Film Festival 2012. Prize 12 wins.\n\nImdb: &lt;a href=&quot;\nhttp://www.imdb.com/title/tt1996310/?ref_=fn_al_tt_1&quot; rel=&quot;nofollow&quot; target=&quot;_NEW&quot;&gt;\nhttp://www.imdb.com/title/tt1996310/?ref_=fn_al_tt_1&lt;/a&gt;\n\nTrailer: &lt;a href=&quot;\nhttp://www.bandes-annonces.fr/film-2013/bande-annonce-lore.html&quot; rel=&quot;nofollow&quot; target=&quot;_NEW&quot;&gt;\nhttp://www.bandes-annonces.fr/film-2013/bande-annonce-lore.html&lt;/a&gt; \n\nMedia Info:\n\nGeneral\nComplete name                            : Lore.2012.DVDRip.SUBBED.XviD.AC3.HORiZON-ArtSubs\nFormat                                   : AVI\nFormat/Info                              : Audio Video Interleave\nFile size                                : 1.46 GiB\nDuration                                 : 1h 44mn\nOverall bit rate                         : 1 996 Kbps\nWriting application                      : FairUse Wizard - http://fairusewizard.com\nWriting library                          : The best and REALLY easy backup tool\n\nVideo\nID                                       : 0\nFormat                                   : MPEG-4 Visual\nFormat profile                           : Advanced Simple@L5\nFormat settings, BVOP                    : 1\nFormat settings, QPel                    : No\nFormat settings, GMC                     : No warppoints\nFormat settings, Matrix                  : Default (MPEG)\nMuxing mode                              : Packed bitstream\nCodec ID                                 : XVID\nCodec ID/Hint                            : XviD\nDuration                                 : 1h 44mn\nBit rate                                 : 1 795 Kbps\nWidth                                    : 688 pixels\nHeight                                   : 368 pixels\nDisplay aspect ratio                     : 1.85:1\nFrame rate                               : 23.976 fps\nColor space                              : YUV\nChroma subsampling                       : 4:2:0\nBit depth                                : 8 bits\nScan type                                : Progressive\nCompression mode                         : Lossy\nBits/(Pixel*Frame)                       : 0.296\nStream size                              : 1.31 GiB (90%)\nWriting library                          : XviD 1.2.0.dev47 (UTC 2006-11-01)\n\nAudio\nID                                       : 1\nFormat                                   : AC-3\nFormat/Info                              : Audio Coding 3\nMode extension                           : CM (complete main)\nFormat settings, Endianness              : Big\nCodec ID                                 : 2000\nDuration                                 : 1h 44mn\nBit rate mode                            : Constant\nBit rate                                 : 192 Kbps\nChannel(s)                               : 2 channels\nChannel positions                        : Front: L R\nSampling rate                            : 48.0 KHz\nBit depth                                : 16 bits\nCompression mode                         : Lossy\nStream size                              : 144 MiB (10%)\nAlignment                                : Split accross interleaves\nInterleave, duration                     : 42 ms (1.00 video frame)\nInterleave, preload duration             : 500 ms\n\n","torrent":{"xt":"urn:btih:95595bab446cd5acd52c7945ec5a8660b73b837a","amp;dn":"Lore.2012.DVDRip.SUBBED.XviD.AC3.HORiZON-ArtSubs","amp;tr":["udp%3A%2F%2Ftracker.openbittorrent.com%3A80","udp%3A%2F%2Fopen.demonii.com%3A1337","udp%3A%2F%2Ftracker.coppersurfer.tk%3A6969","udp%3A%2F%2Fexodus.desync.com%3A6969"],"infoHash":"95595bab446cd5acd52c7945ec5a8660b73b837a","infoHashBuffer":{"type":"Buffer","data":[149,89,91,171,68,108,213,172,213,44,121,69,236,90,134,96,183,59,131,122]},"announce":[],"urlList":[]}}